<svg xmlns="http://www.w3.org/2000/svg" viewBox="0 0 164 35"><g class="logo-footer"><path d="M13.44.67A15.56 15.56 0 0 1 25.08 5.5a16.53 16.53 0 0 1 4.68 12 16.52 16.52 0 0 1-4.68 12 15.56 15.56 0 0 1-11.64 4.82H0V.67zm0 26.21a8.56 8.56 0 0 0 6.46-2.57 9.45 9.45 0 0 0 2.47-6.84 9.45 9.45 0 0 0-2.47-6.84 8.56 8.56 0 0 0-6.46-2.57H7.68v18.82zM42.24 26.88h13.44v7.39H34.56V.67h20.88v7.39h-13.2v5.57h12v7.3h-12zM68.54 34.27L57.6.67H66l7.44 24.72L80.88.67h8.4l-10.94 33.6zM92.64.67h7.68v33.6h-7.68zM122.59 34.94a17.06 17.06 0 0 1-17.47-17.47A17.06 17.06 0 0 1 122.59 0a17.2 17.2 0 0 1 8.35 2.09 15.8 15.8 0 0 1 6 5.69l-6.62 3.84a7.57 7.57 0 0 0-3.17-3 9.79 9.79 0 0 0-4.61-1.08 9.49 9.49 0 0 0-7.13 2.74 10 10 0 0 0-2.66 7.25 10 10 0 0 0 2.66 7.25 9.49 9.49 0 0 0 7.13 2.74 9.75 9.75 0 0 0 4.63-1.1 7.46 7.46 0 0 0 3.14-3l6.69 3.75a15.45 15.45 0 0 1-6 5.69 17.31 17.31 0 0 1-8.41 2.08zM148.75 26.88h13.44v7.39h-21.12V.67H162v7.39h-13.2v5.57h12v7.3h-12z"/></g></svg>